<svg xmlns="http://www.w3.org/2000/svg" width="331" height="337" viewBox="0 0 331 337">
  <g id="Group_2" data-name="Group 2" transform="translate(-417 -730)">
    <rect id="Rectangle_17" data-name="Rectangle 17" width="331" height="337" transform="translate(417 730)" fill="none"/>
    <g id="Group_1" data-name="Group 1" transform="translate(2 65)">
      <text id="B" transform="matrix(-1, 0, 0, 1, 497.421, 862.543)" fill="#feb446" stroke="#feb446" stroke-width="3" font-size="119" font-family="Tahoma"><tspan x="0" y="0">B</tspan></text>
      <text id="D" transform="translate(626.822 873.939) rotate(-90)" fill="#feb446" stroke="#feb446" stroke-width="3" font-size="127" font-family="Tahoma"><tspan x="0" y="0">D</tspan></text>
      <text id="B-2" data-name="B" transform="translate(663.871 862.5)" fill="#feb446" stroke="#feb446" stroke-width="3" font-size="119" font-family="Tahoma"><tspan x="0" y="0">B</tspan></text>
      <rect id="Rectangle_19" data-name="Rectangle 19" width="31" height="13" rx="5" transform="translate(589 757) rotate(90)" fill="#feb446"/>
      <rect id="Rectangle_20" data-name="Rectangle 20" width="30.409" height="12.804" rx="5" transform="translate(633.59 773.95) rotate(120)" fill="#feb446"/>
      <rect id="Rectangle_21" data-name="Rectangle 21" width="30.409" height="12.804" rx="5" transform="translate(541.563 765.948) rotate(60)" fill="#feb446"/>
      <rect id="Rectangle_22" data-name="Rectangle 22" width="30.409" height="12.804" rx="5" transform="translate(509.49 794.248) rotate(30)" fill="#feb446"/>
      <rect id="Rectangle_23" data-name="Rectangle 23" width="30.409" height="12.804" rx="5" transform="translate(659.805 808.109) rotate(150)" fill="#feb446"/>
      <rect id="Rectangle_24" data-name="Rectangle 24" width="30.409" height="12.804" rx="5" transform="translate(663.071 846.731) rotate(180)" fill="#feb446"/>
      <rect id="Rectangle_25" data-name="Rectangle 25" width="30.409" height="12.804" rx="5" transform="translate(498.221 830.726)" fill="#feb446"/>
    </g>
    <text id="Bright_Day_Breakfast" data-name="Bright Day Breakfast" transform="translate(428.5 965.5)" fill="#feb446" stroke="#feb446" stroke-width="1" font-size="30" font-family="SegoeUI, Segoe UI" letter-spacing="0.07em"><tspan x="0" y="0">Bright Day Breakfast</tspan></text>
  </g>
</svg>
